<svg version="1.1" id="Layer_1" xmlns="http://www.w3.org/2000/svg" xmlns:xlink="http://www.w3.org/1999/xlink" x="0px" y="0px"
	 width="100%" viewBox="0 0 395 128" enable-background="new 0 0 395 128" xml:space="preserve">
<path fill="#FFFEFE" opacity="1.000000" stroke="none" 
	d="
M59.000000,1.000000 
	C171.280533,1.000000 283.561066,1.000000 395.920776,1.000000 
	C395.920776,43.593685 395.920776,86.187561 395.920776,128.890717 
	C264.333374,128.890717 132.666702,128.890717 1.000015,128.897583 
	C1.000000,105.582085 1.000000,82.259697 1.388524,58.626846 
	C13.165243,60.983788 14.631286,59.926682 14.905151,48.852314 
	C14.921609,48.186790 14.928406,47.520306 14.970760,46.856251 
	C15.970774,31.177801 28.017048,16.889799 42.607292,14.071129 
	C60.145298,10.682983 75.497215,18.066565 82.854568,33.515984 
	C86.598671,41.378078 87.594475,49.689800 86.255165,58.554947 
	C90.780586,58.554947 95.029160,58.554947 99.300247,58.554947 
	C99.555031,57.952019 99.843605,57.522606 99.917023,57.059113 
	C103.733475,32.967331 88.105080,9.134427 64.438225,2.872506 
	C62.589745,2.383423 60.811100,1.630369 59.000000,1.000000 
M132.722900,5.939297 
	C132.709549,20.040733 132.656372,34.142273 132.693161,48.243580 
	C132.736435,64.825050 132.857773,81.406319 132.926590,98.573502 
	C133.275253,98.675377 133.623917,98.777252 134.901428,99.039001 
	C152.918365,99.039001 170.935303,99.039001 188.957245,99.039001 
	C188.957245,95.247360 188.957245,92.111320 189.087738,88.095467 
	C187.975906,87.717987 186.865341,87.016792 185.752029,87.012375 
	C172.507889,86.959778 159.263321,87.010963 145.577133,86.338570 
	C145.518524,79.190315 145.440445,72.042160 145.405029,64.893791 
	C145.306198,44.941544 145.225037,24.989210 145.150818,4.344515 
	C144.755463,4.189015 144.360123,4.033515 143.082169,3.667740 
	C140.065018,3.738131 137.047852,3.808521 133.360382,3.865286 
	C133.214386,4.251012 133.068390,4.636737 132.722900,5.939297 
M279.965820,88.079895 
	C279.028320,87.707481 278.091278,87.012115 277.153259,87.010780 
	C261.447876,86.988464 245.742386,87.052849 229.298676,86.620193 
	C229.298676,76.551788 229.298676,66.483391 229.298676,55.932953 
	C244.421463,55.932953 259.156036,55.932953 274.123260,55.932953 
	C274.123260,53.294399 273.933594,51.124447 274.163879,49.000011 
	C274.604279,44.936909 272.790100,43.797691 268.952393,43.932720 
	C262.130005,44.172764 255.293106,44.000095 248.462265,44.000080 
	C242.034164,44.000069 235.606064,44.000076 229.290314,44.000076 
	C229.290314,34.237389 229.290314,25.154240 229.290314,15.547010 
	C245.496628,15.547010 261.387665,15.547010 277.420105,15.547010 
	C277.420105,11.407179 277.420105,7.803350 277.420105,3.910810 
	C256.957458,3.910810 236.729721,3.910810 216.310333,3.910810 
	C216.310333,35.616753 216.310333,67.162613 216.310333,99.071335 
	C234.574432,99.071335 252.538147,99.157745 270.500458,99.036873 
	C280.283630,98.971039 280.344940,101.444443 279.965820,88.079895 
M47.626019,89.059479 
	C33.981995,87.906242 24.458015,80.865211 18.297049,68.803795 
	C17.536861,67.315567 15.909448,65.471497 14.482726,65.278351 
	C10.794407,64.779030 6.993550,65.110985 3.141226,65.110985 
	C8.390747,88.862907 29.633615,102.935120 56.760983,101.093246 
	C76.438179,99.757225 96.484413,82.427048 97.930717,65.110161 
	C94.282318,65.110161 90.638908,64.888016 87.049492,65.230988 
	C85.798004,65.350578 84.160095,66.608284 83.579750,67.781914 
	C76.380028,82.341827 65.106232,90.046211 47.626019,89.059479 
M350.691132,28.866049 
	C354.290466,37.778923 357.803101,46.728867 361.581421,55.565205 
	C362.156708,56.910614 363.875732,58.491779 365.217133,58.645798 
	C368.904938,59.069225 372.673187,58.791973 377.079803,58.791973 
	C369.432190,40.835541 362.196045,23.570086 354.693359,6.421234 
	C352.802002,2.098276 348.372559,3.435165 344.956329,3.710925 
	C343.304047,3.844298 341.040070,5.469251 340.345551,7.003840 
	C332.886597,23.484264 325.681885,40.079819 318.432648,56.654831 
	C318.192749,57.203403 318.219574,57.868633 318.071625,58.795689 
	C320.833710,58.795689 323.341736,58.538586 325.775482,58.854275 
	C329.698303,59.363125 331.655823,57.921543 333.077728,54.137260 
	C336.872253,44.038620 341.150482,34.121300 345.270996,24.146185 
	C345.716034,23.068813 346.387695,22.085070 347.252075,20.517824 
	C348.482697,23.578863 349.408875,25.882690 350.691132,28.866049 
M392.920868,95.706177 
	C388.982513,86.576920 385.103851,77.420898 381.038300,68.348640 
	C380.460327,67.058937 379.056671,65.370453 377.894318,65.252266 
	C374.048798,64.861275 370.138794,65.104752 365.575195,65.104752 
	C370.125916,76.342041 374.294098,86.772697 378.641968,97.127899 
	C379.019226,98.026360 380.548157,98.896561 381.600067,98.972015 
	C384.902832,99.208931 388.235168,98.990967 391.552307,99.084145 
	C393.787262,99.146912 394.198822,98.300659 392.920868,95.706177 
M305.868317,85.356163 
	C303.944885,89.714104 302.021454,94.072044 299.821350,99.056885 
	C304.585968,99.056885 308.692139,99.156410 312.786407,98.979721 
	C313.693665,98.940567 315.042328,98.125366 315.370270,97.330299 
	C319.705963,86.819489 323.895355,76.248337 328.362427,65.090065 
	C324.916077,65.090065 322.255920,65.351181 319.668579,65.028397 
	C315.861908,64.553482 314.032501,66.190392 312.726898,69.631027 
	C310.790009,74.735146 308.343384,79.645798 305.868317,85.356163 
z"/>
<path fill="#F5AD3E" opacity="1.000000" stroke="none" 
	d="
M58.600006,1.000000 
	C60.811100,1.630369 62.589745,2.383423 64.438225,2.872506 
	C88.105080,9.134427 103.733475,32.967331 99.917023,57.059113 
	C99.843605,57.522606 99.555031,57.952019 99.300247,58.554947 
	C95.029160,58.554947 90.780586,58.554947 86.255165,58.554947 
	C87.594475,49.689800 86.598671,41.378078 82.854568,33.515984 
	C75.497215,18.066565 60.145298,10.682983 42.607292,14.071129 
	C28.017048,16.889799 15.970774,31.177801 14.970760,46.856251 
	C14.928406,47.520306 14.921609,48.186790 14.905151,48.852314 
	C14.631286,59.926682 13.165243,60.983788 1.388524,58.158188 
	C1.000000,52.977909 1.000000,47.955814 1.314820,42.272110 
	C5.185404,26.504255 12.641682,14.098883 26.867283,6.896726 
	C31.939796,4.328606 37.605217,2.931582 43.000000,1.000000 
	C44.066669,1.000000 45.133339,1.000000 46.863747,1.287158 
	C50.018322,1.382877 52.509163,1.191438 55.000000,1.000000 
	C56.066669,1.000000 57.133339,1.000000 58.600006,1.000000 
z"/>
<path fill="#FFFEFC" opacity="1.000000" stroke="none" 
	d="
M42.531342,1.000000 
	C37.605217,2.931582 31.939796,4.328606 26.867283,6.896726 
	C12.641682,14.098883 5.185404,26.504255 1.314820,41.805244 
	C1.000000,28.405777 1.000000,14.811556 1.000000,1.000000 
	C14.686795,1.000000 28.374739,1.000000 42.531342,1.000000 
z"/>
<path fill="#F6B759" opacity="1.000000" stroke="none" 
	d="
M54.555836,1.000000 
	C52.509163,1.191438 50.018322,1.382877 47.263741,1.287158 
	C49.370556,1.000000 51.741116,1.000000 54.555836,1.000000 
z"/>
<path fill="#B5492C" opacity="1.000000" stroke="none" 
	d="
M279.853577,88.947891 
	C280.344940,101.444443 280.283630,98.971039 270.500458,99.036873 
	C252.538147,99.157745 234.574432,99.071335 216.310333,99.071335 
	C216.310333,67.162613 216.310333,35.616753 216.310333,3.910810 
	C236.729721,3.910810 256.957458,3.910810 277.420105,3.910810 
	C277.420105,7.803350 277.420105,11.407179 277.420105,15.547010 
	C261.387665,15.547010 245.496628,15.547010 229.290314,15.547010 
	C229.290314,25.154240 229.290314,34.237389 229.290314,44.000076 
	C235.606064,44.000076 242.034164,44.000069 248.462265,44.000080 
	C255.293106,44.000095 262.130005,44.172764 268.952393,43.932720 
	C272.790100,43.797691 274.604279,44.936909 274.163879,49.000011 
	C273.933594,51.124447 274.123260,53.294399 274.123260,55.932953 
	C259.156036,55.932953 244.421463,55.932953 229.298676,55.932953 
	C229.298676,66.483391 229.298676,76.551788 229.967590,87.143829 
	C244.938263,87.779076 259.240509,87.854202 273.541260,88.042252 
	C275.648987,88.069962 277.749634,88.632698 279.853577,88.947891 
z"/>
<path fill="#B4482B" opacity="1.000000" stroke="none" 
	d="
M132.945251,97.987671 
	C132.857773,81.406319 132.736435,64.825050 132.693161,48.243580 
	C132.656372,34.142273 132.709549,20.040733 133.071777,5.360827 
	C133.623993,4.481209 133.827347,4.180060 134.030701,3.878912 
	C137.047852,3.808521 140.065018,3.738131 143.646713,4.030956 
	C144.519806,4.608420 144.828354,4.822669 145.136902,5.036915 
	C145.225037,24.989210 145.306198,44.941544 145.405029,64.893791 
	C145.440445,72.042160 145.518524,79.190315 146.089844,86.983353 
	C158.635544,87.751961 170.669296,87.832657 182.700836,88.040535 
	C184.791061,88.076660 186.872009,88.650047 188.957245,88.975281 
	C188.957245,92.111320 188.957245,95.247360 188.957245,99.039001 
	C170.935303,99.039001 152.918365,99.039001 134.319702,98.755608 
	C133.521896,98.231895 133.257660,98.070381 132.945251,97.987671 
z"/>
<path fill="#B54A2E" opacity="1.000000" stroke="none" 
	d="
M48.075035,89.083862 
	C65.106232,90.046211 76.380028,82.341827 83.579750,67.781914 
	C84.160095,66.608284 85.798004,65.350578 87.049492,65.230988 
	C90.638908,64.888016 94.282318,65.110161 97.930717,65.110161 
	C96.484413,82.427048 76.438179,99.757225 56.760983,101.093246 
	C29.633615,102.935120 8.390747,88.862907 3.141226,65.110985 
	C6.993550,65.110985 10.794407,64.779030 14.482726,65.278351 
	C15.909448,65.471497 17.536861,67.315567 18.297049,68.803795 
	C24.458015,80.865211 33.981995,87.906242 48.075035,89.083862 
z"/>
<path fill="#B54B2E" opacity="1.000000" stroke="none" 
	d="
M350.513092,28.526283 
	C349.408875,25.882690 348.482697,23.578863 347.252075,20.517824 
	C346.387695,22.085070 345.716034,23.068813 345.270996,24.146185 
	C341.150482,34.121300 336.872253,44.038620 333.077728,54.137260 
	C331.655823,57.921543 329.698303,59.363125 325.775482,58.854275 
	C323.341736,58.538586 320.833710,58.795689 318.071625,58.795689 
	C318.219574,57.868633 318.192749,57.203403 318.432648,56.654831 
	C325.681885,40.079819 332.886597,23.484264 340.345551,7.003840 
	C341.040070,5.469251 343.304047,3.844298 344.956329,3.710925 
	C348.372559,3.435165 352.802002,2.098276 354.693359,6.421234 
	C362.196045,23.570086 369.432190,40.835541 377.079803,58.791973 
	C372.673187,58.791973 368.904938,59.069225 365.217133,58.645798 
	C363.875732,58.491779 362.156708,56.910614 361.581421,55.565205 
	C357.803101,46.728867 354.290466,37.778923 350.513092,28.526283 
z"/>
<path fill="#F5AD3F" opacity="1.000000" stroke="none" 
	d="
M393.051636,96.081467 
	C394.198822,98.300659 393.787262,99.146912 391.552307,99.084145 
	C388.235168,98.990967 384.902832,99.208931 381.600067,98.972015 
	C380.548157,98.896561 379.019226,98.026360 378.641968,97.127899 
	C374.294098,86.772697 370.125916,76.342041 365.575195,65.104752 
	C370.138794,65.104752 374.048798,64.861275 377.894318,65.252266 
	C379.056671,65.370453 380.460327,67.058937 381.038300,68.348640 
	C385.103851,77.420898 388.982513,86.576920 393.051636,96.081467 
z"/>
<path fill="#F5AD3F" opacity="1.000000" stroke="none" 
	d="
M305.991028,84.997482 
	C308.343384,79.645798 310.790009,74.735146 312.726898,69.631027 
	C314.032501,66.190392 315.861908,64.553482 319.668579,65.028397 
	C322.255920,65.351181 324.916077,65.090065 328.362427,65.090065 
	C323.895355,76.248337 319.705963,86.819489 315.370270,97.330299 
	C315.042328,98.125366 313.693665,98.940567 312.786407,98.979721 
	C308.692139,99.156410 304.585968,99.056885 299.821350,99.056885 
	C302.021454,94.072044 303.944885,89.714104 305.991028,84.997482 
z"/>
<path fill="#AF3300" opacity="1.000000" stroke="none" 
	d="
M279.909698,88.513901 
	C277.749634,88.632698 275.648987,88.069962 273.541260,88.042252 
	C259.240509,87.854202 244.938263,87.779076 230.336700,87.382698 
	C245.742386,87.052849 261.447876,86.988464 277.153259,87.010780 
	C278.091278,87.012115 279.028320,87.707481 279.909698,88.513901 
z"/>
<path fill="#AF3300" opacity="1.000000" stroke="none" 
	d="
M189.022491,88.535370 
	C186.872009,88.650047 184.791061,88.076660 182.700836,88.040535 
	C170.669296,87.832657 158.635544,87.751961 146.310715,87.331543 
	C159.263321,87.010963 172.507889,86.959778 185.752029,87.012375 
	C186.865341,87.016792 187.975906,87.717987 189.022491,88.535370 
z"/>
<path fill="#B03C18" opacity="1.000000" stroke="none" 
	d="
M133.695541,3.872099 
	C133.827347,4.180060 133.623993,4.481209 133.171509,4.902411 
	C133.068390,4.636737 133.214386,4.251012 133.695541,3.872099 
z"/>
<path fill="#B03C18" opacity="1.000000" stroke="none" 
	d="
M145.143860,4.690716 
	C144.828354,4.822669 144.519806,4.608420 144.088013,4.136093 
	C144.360123,4.033515 144.755463,4.189015 145.143860,4.690716 
z"/>
<path fill="#B03C18" opacity="1.000000" stroke="none" 
	d="
M132.935913,98.280586 
	C133.257660,98.070381 133.521896,98.231895 133.855270,98.675667 
	C133.623917,98.777252 133.275253,98.675377 132.935913,98.280586 
z"/>
</svg>